<svg xmlns="http://www.w3.org/2000/svg" viewBox="0 0 512 512"><rect width="512" height="512" fill="#ffd43b"/><rect x="136" y="115" width="240" height="290" rx="26" fill="#20252b" opacity=".13"/><path d="M150 108h161l59 59v215a20 20 0 0 1-20 20H150a20 20 0 0 1-20-20V128a20 20 0 0 1 20-20" fill="white"/><path d="M311 108v43a16 16 0 0 0 16 16h43" fill="#e9edf0"/><path d="M170 184h104M170 219h84M170 342h121" stroke="#d3d9df" stroke-width="14" stroke-linecap="round"/><path d="M284 188l-87 105h59l-28 92 104-128h-64z" fill="#20252b"/></svg>
